<?xml version="1.0" encoding="UTF-8" standalone="no"?>
<!-- Created with Inkscape (http://www.inkscape.org/) -->

<svg
   xmlns:dc="http://purl.org/dc/elements/1.1/"
   xmlns:cc="http://creativecommons.org/ns#"
   xmlns:rdf="http://www.w3.org/1999/02/22-rdf-syntax-ns#"
   xmlns:svg="http://www.w3.org/2000/svg"
   xmlns="http://www.w3.org/2000/svg"
   xmlns:sodipodi="http://sodipodi.sourceforge.net/DTD/sodipodi-0.dtd"
   xmlns:inkscape="http://www.inkscape.org/namespaces/inkscape"
   width="200"
   height="200"
   viewBox="0 0 200 200"
   id="svg4144"
   version="1.1"
   inkscape:version="0.91 r13725"
   sodipodi:docname="arrow-down.svg">
  <defs
     id="defs4146" />
  <sodipodi:namedview
     id="base"
     pagecolor="#ffffff"
     bordercolor="#666666"
     borderopacity="1.0"
     inkscape:pageopacity="0.0"
     inkscape:pageshadow="2"
     inkscape:zoom="1.979899"
     inkscape:cx="62.156955"
     inkscape:cy="78.534477"
     inkscape:document-units="px"
     inkscape:current-layer="layer1"
     showgrid="false"
     units="px"
     inkscape:window-width="1860"
     inkscape:window-height="1064"
     inkscape:window-x="60"
     inkscape:window-y="0"
     inkscape:window-maximized="1" />
  <metadata
     id="metadata4149">
    <rdf:RDF>
      <cc:Work
         rdf:about="">
        <dc:format>image/svg+xml</dc:format>
        <dc:type
           rdf:resource="http://purl.org/dc/dcmitype/StillImage" />
        <dc:title />
      </cc:Work>
    </rdf:RDF>
  </metadata>
  <g
     inkscape:label="Layer 1"
     inkscape:groupmode="layer"
     id="layer1"
     transform="translate(0,-852.36216)">
    <g
       transform="matrix(0.09067077,0,0,0.09067077,25.066987,900.47719)"
       id="g3027"
       style="fill:#262626;fill-opacity:1">
      <path
         d="m 1611,565 c 0,-34 -12.3333,-64 -37,-90 l -75,-75 c -25.3333,-25.33333 -55.6667,-38 -91,-38 -36,0 -66,12.66667 -90,38 l -294,293 14.3076,-779.353337 c 0.6363,-34.660823 -12.5,-62.833333 -37.5,-84.500003 -25,-21.66666 -55.16667,-32.5 -90.5,-32.5 l -128,0 c -35.33334,0 -65.5,10.83334 -90.5,32.5 -25,21.66667 -36.86369,49.83918 -37.5,84.500003 L 640,693 346,400 c -24,-25.33333 -54,-38 -90,-38 -36,0 -66,12.66667 -90,38 l -75,75 c -25.333333,25.33333 -38,55.33333 -38,90 0,35.33333 12.666667,65.66667 38,91 l 651,651 c 23.33333,24.6667 53.33333,37 90,37 36,0 66.33333,-12.3333 91,-37 l 651,-651 c 24.6667,-26 37,-56.33333 37,-91 z"
         id="path3029"
         inkscape:connector-curvature="0"
         style="fill:#262626;fill-opacity:1"
         sodipodi:nodetypes="scssccssssssccscssscsscs" />
    </g>
  </g>
</svg>
