<?xml version="1.0" encoding="UTF-8" standalone="no"?>
<svg
   xmlns:dc="http://purl.org/dc/elements/1.1/"
   xmlns:cc="http://creativecommons.org/ns#"
   xmlns:rdf="http://www.w3.org/1999/02/22-rdf-syntax-ns#"
   xmlns:svg="http://www.w3.org/2000/svg"
   xmlns="http://www.w3.org/2000/svg"
   xmlns:sodipodi="http://sodipodi.sourceforge.net/DTD/sodipodi-0.dtd"
   xmlns:inkscape="http://www.inkscape.org/namespaces/inkscape"
   version="1.1"
   x="0px"
   y="0px"
   width="400"
   height="415"
   viewBox="0 0 400 415"
   xml:space="preserve"
   id="svg2"
   inkscape:version="0.91 r13725"
   sodipodi:docname="home_trackers.svg"><metadata
     id="metadata11"><rdf:RDF><cc:Work
         rdf:about=""><dc:format>image/svg+xml</dc:format><dc:type
           rdf:resource="http://purl.org/dc/dcmitype/StillImage" /><dc:title></dc:title></cc:Work></rdf:RDF></metadata><defs
     id="defs9" /><sodipodi:namedview
     pagecolor="#ffffff"
     bordercolor="#666666"
     borderopacity="1"
     objecttolerance="10"
     gridtolerance="10"
     guidetolerance="10"
     inkscape:pageopacity="0"
     inkscape:pageshadow="2"
     inkscape:window-width="916"
     inkscape:window-height="1045"
     id="namedview7"
     showgrid="false"
     inkscape:zoom="0.49166667"
     inkscape:cx="-131.18643"
     inkscape:cy="240"
     inkscape:window-x="60"
     inkscape:window-y="0"
     inkscape:window-maximized="0"
     inkscape:current-layer="cross" /><g
     id="cross"
     transform="translate(0,-65)"><path
       d="m 273.57183,282.77466 103.285,-103.259 c 5.006,-5.018 5.006,-13.237 0,-18.251 l -54.721,-54.733 c -5.014,-5 -13.229,-5 -18.24,0 l -103.281,103.28 -103.280999,-103.28 c -5.018,-5 -13.229,-5 -18.246,0 l -54.717,54.733 c -5.008,5.014 -5.008,13.233 0,18.251 l 103.280999,103.259 -103.262999,103.268 c -5.018,5.014 -5.018,13.232 0,18.25 l 54.717,54.738 c 5.018,5.001 13.229,5.001 18.242,0 l 103.267999,-103.285 103.264,103.285 c 5.018,5.001 13.229,5.001 18.24,0 l 54.721,-54.738 c 5.014,-5.018 5.014,-13.236 0,-18.25 l -103.269,-103.268 z"
       id="path5"
       style="fill:#262626;fill-opacity:1"
       inkscape:connector-curvature="0" /></g></svg>