<?xml version="1.0" encoding="UTF-8" standalone="no"?>
<svg
   xmlns:dc="http://purl.org/dc/elements/1.1/"
   xmlns:cc="http://creativecommons.org/ns#"
   xmlns:rdf="http://www.w3.org/1999/02/22-rdf-syntax-ns#"
   xmlns:svg="http://www.w3.org/2000/svg"
   xmlns="http://www.w3.org/2000/svg"
   xmlns:sodipodi="http://sodipodi.sourceforge.net/DTD/sodipodi-0.dtd"
   xmlns:inkscape="http://www.inkscape.org/namespaces/inkscape"
   viewBox="0 0 483 483"
   id="svg2"
   version="1.1"
   inkscape:version="0.91 r13725"
   sodipodi:docname="home_blocked.svg"
   width="483"
   height="483">
  <metadata
     id="metadata10">
    <rdf:RDF>
      <cc:Work
         rdf:about="">
        <dc:format>image/svg+xml</dc:format>
        <dc:type
           rdf:resource="http://purl.org/dc/dcmitype/StillImage" />
        <dc:title></dc:title>
      </cc:Work>
    </rdf:RDF>
  </metadata>
  <defs
     id="defs8" />
  <sodipodi:namedview
     pagecolor="#ffffff"
     bordercolor="#666666"
     borderopacity="1"
     objecttolerance="10"
     gridtolerance="10"
     guidetolerance="10"
     inkscape:pageopacity="0"
     inkscape:pageshadow="2"
     inkscape:window-width="1860"
     inkscape:window-height="1064"
     id="namedview6"
     showgrid="false"
     inkscape:zoom="1.3037281"
     inkscape:cx="15.644491"
     inkscape:cy="264.53179"
     inkscape:window-x="60"
     inkscape:window-y="0"
     inkscape:window-maximized="1"
     inkscape:current-layer="svg2" />
  <g
     id="g3368"
     transform="matrix(1.0368784,0,0,1.0368784,-16.636561,-10.245894)"
     style="fill:#262626;fill-opacity:1">
    <path
       sodipodi:nodetypes="cccccccccccccccccccccccccccccccccc"
       inkscape:connector-curvature="0"
       id="path3364"
       d="m 216.01172,36.703125 c -6.348,0.01 -13.05586,0.447313 -20.00586,1.320313 -34.6,4.347 -75.1442,19.347734 -107.408204,47.302734 l 33.470704,190.197268 0.32617,9.95117 c -0.0295,9.97367 0.50682,21.4695 0.79878,30.39649 l 58.5957,8.45703 9.11328,-21.2246 c 5.53857,0.91581 11.143,1.72673 16.77735,2.46289 l 10.61133,18.84961 c 80.16,9.438 141.51015,-1.20588 172.03515,-21.79688 0.0214,-7.915 1.27813,-15.93947 -0.32242,-22.62109 -14.8327,-48.13618 -60.93733,-86.72293 -134.98829,-54.73633 l 0.42774,-16.76953 0.0117,-0.11914 -27.06446,-14.1836 -35.34374,25 -10.79297,-15.25586 27.54687,-19.48437 -27.5,-14.41016 8.66992,-16.55273 35.96289,18.84179 34.57032,-24.45703 1.61914,-16.18554 -30.19922,-17.91797 -35.16016,22.43164 -10.04883,-15.75586 27.20704,-17.36133 -27.97071,-16.593749 9.53906,-16.072265 36.08008,21.408203 37.08789,-23.664063 c 1.453,-20.61 -21.48048,-31.510031 -53.64648,-31.457031 z"
       style="fill:#262626;fill-opacity:1" />
    <path
       id="path3362"
       d="m 267.094,91.965 -16.522,10.54 14.602,8.665 z"
       inkscape:connector-curvature="0"
       style="fill:#262626;fill-opacity:1" />
    <path
       id="path3360"
       d="m 259.041,172.505 -13.517,9.563 11.936,6.254 1.58,-15.816 z"
       inkscape:connector-curvature="0"
       style="fill:#262626;fill-opacity:1" />
  </g>
  <path
     d="m 78.092844,326.27365 c -2.51,0.75 -4.906,1.515 -7.175,2.3 l -47.517,0 24.928,11.085 -44.2799997,25.63 45.6769997,-4.822 c 2.33,1.773 5.212,3.498 8.62,5.166 l -29.19,44.532 64.784998,-32.977 c 4.21,0.968 8.639998,1.892 13.269998,2.773 l -10.732998,66.783 61.412998,-59.744 c 5.432,0.527 10.985,1.008 16.67,1.435 l 11.673,77.528 50.93,-75.073 c 2.03,0.013 4.05,0.034 6.096,0.034 2.436,0 4.85,-0.022 7.265,-0.04 l 56.216,76.782 6.903,-79.364 c 5.663,-0.437 11.218,-0.92 16.625,-1.457 l 60.782,59.9 -10.762,-66.976 c 4.528,-0.872 8.86,-1.787 12.98,-2.743 l 65.102,33.14 -29.437,-44.913 c 3.135,-1.58 5.808,-3.21 7.984,-4.88 l 46.562,4.915 -44.253,-25.613 24.966,-11.1 -48.592,0 c -2.223,-0.77 -4.564,-1.52 -7.016,-2.253 5.408,3.254 8.34,6.724 8.34,10.326 0,18.587 -77.737,33.652 -173.627,33.652 -95.89,0 -173.626996,-15.065 -173.626996,-33.652 0,-3.62 2.96,-7.105 8.418,-10.373 z"
     id="path4"
     inkscape:connector-curvature="0"
     style="fill:#262626;fill-opacity:1" />
</svg>
