<?xml version="1.0" encoding="UTF-8" standalone="no"?>
<!-- Generator: Adobe Illustrator 19.0.0, SVG Export Plug-In . SVG Version: 6.00 Build 0)  -->

<svg
   xmlns:dc="http://purl.org/dc/elements/1.1/"
   xmlns:cc="http://creativecommons.org/ns#"
   xmlns:rdf="http://www.w3.org/1999/02/22-rdf-syntax-ns#"
   xmlns:svg="http://www.w3.org/2000/svg"
   xmlns="http://www.w3.org/2000/svg"
   xmlns:sodipodi="http://sodipodi.sourceforge.net/DTD/sodipodi-0.dtd"
   xmlns:inkscape="http://www.inkscape.org/namespaces/inkscape"
   version="1.1"
   id="Layer_1"
   x="0px"
   y="0px"
   viewBox="0 0 48 42"
   xml:space="preserve"
   inkscape:version="0.91 r13725"
   sodipodi:docname="icon_home.svg"
   width="48"
   height="42"><metadata
     id="metadata11"><rdf:RDF><cc:Work
         rdf:about=""><dc:format>image/svg+xml</dc:format><dc:type
           rdf:resource="http://purl.org/dc/dcmitype/StillImage" /><dc:title></dc:title><cc:license
           rdf:resource="http://creativecommons.org/publicdomain/zero/1.0/" /></cc:Work><cc:License
         rdf:about="http://creativecommons.org/publicdomain/zero/1.0/"><cc:permits
           rdf:resource="http://creativecommons.org/ns#Reproduction" /><cc:permits
           rdf:resource="http://creativecommons.org/ns#Distribution" /><cc:permits
           rdf:resource="http://creativecommons.org/ns#DerivativeWorks" /></cc:License></rdf:RDF></metadata><defs
     id="defs9" /><sodipodi:namedview
     pagecolor="#ffffff"
     bordercolor="#666666"
     borderopacity="1"
     objecttolerance="10"
     gridtolerance="10"
     guidetolerance="10"
     inkscape:pageopacity="0"
     inkscape:pageshadow="2"
     inkscape:window-width="1920"
     inkscape:window-height="1065"
     id="namedview7"
     showgrid="false"
     inkscape:zoom="6.9532167"
     inkscape:cx="42.886521"
     inkscape:cy="59.742901"
     inkscape:window-x="0"
     inkscape:window-y="0"
     inkscape:window-maximized="1"
     inkscape:current-layer="XMLID_2_" /><style
     type="text/css"
     id="style3">
	.st0{fill:#333333;}
</style><g
     id="XMLID_2_"
     transform="translate(0,-54)"><path
       id="XMLID_6_"
       class="st0"
       d="m 40.773353,79.456521 0,13.871646 c 0,0.5075 -0.169166,0.930416 -0.507499,1.268749 -0.338333,0.338333 -0.761249,0.507499 -1.268749,0.507499 l -11.080401,0 0,-10.995817 -7.358739,0 0,11.0804 -11.1649845,0 c -0.5074993,0 -0.9304154,-0.169166 -1.2687482,-0.507499 C 7.7858994,94.343166 7.6167331,93.92025 7.6167331,93.412751 l 0,-13.95623 c 0,0 0,-0.08459 0,-0.08459 0,0 0,-0.08459 0,-0.08459 L 24.195042,65.669457 40.773353,79.371938 c 0,0 0,0 0,0.08459 z m 6.512906,-1.945414 -1.776246,2.11458 c -0.169167,0.169166 -0.338333,0.253749 -0.592083,0.338333 l -0.08459,0 c -0.25375,0 -0.422916,-0.08459 -0.592083,-0.169167 L 24.195042,63.047377 4.2334046,79.71027 c -0.2537497,0.169166 -0.4229161,0.25375 -0.6766658,0.169166 -0.2537496,0 -0.422916,-0.169166 -0.5920824,-0.338332 L 1.1038257,77.511107 C 0.93465925,77.341941 0.85007607,77.088191 0.93465925,76.834441 c 0,-0.253749 0.084583,-0.507499 0.33833285,-0.592082 L 21.99588,58.9028 c 0.592082,-0.507499 1.353331,-0.761249 2.199162,-0.761249 0.845833,0 1.607082,0.25375 2.199164,0.761249 l 7.020407,5.920825 0,-5.667075 c 0,-0.25375 0.08459,-0.5075 0.25375,-0.676666 0.169166,-0.169167 0.422916,-0.25375 0.676666,-0.25375 l 5.497908,0 c 0.25375,0 0.5075,0.08459 0.676666,0.25375 0.169167,0.169166 0.25375,0.422916 0.25375,0.676666 l 0,11.757066 6.34374,5.244159 c 0.169166,0.169167 0.338333,0.338333 0.338333,0.592083 0,0.25375 -0.08459,0.507499 -0.169167,0.761249 z"
       style="fill:#868686;fill-opacity:1"
       inkscape:connector-curvature="0" /></g></svg>