<?xml version="1.0" encoding="UTF-8" standalone="no"?>
<!-- Generator: Adobe Illustrator 16.0.0, SVG Export Plug-In . SVG Version: 6.00 Build 0)  -->

<svg
   xmlns:dc="http://purl.org/dc/elements/1.1/"
   xmlns:cc="http://creativecommons.org/ns#"
   xmlns:rdf="http://www.w3.org/1999/02/22-rdf-syntax-ns#"
   xmlns:svg="http://www.w3.org/2000/svg"
   xmlns="http://www.w3.org/2000/svg"
   xmlns:sodipodi="http://sodipodi.sourceforge.net/DTD/sodipodi-0.dtd"
   xmlns:inkscape="http://www.inkscape.org/namespaces/inkscape"
   version="1.1"
   id="Capa_1"
   x="0px"
   y="0px"
   width="60"
   height="60"
   viewBox="0 0 59.999998 59.999999"
   xml:space="preserve"
   inkscape:version="0.91 r13725"
   sodipodi:docname="2812_0_menu_security.svg"><metadata
     id="metadata41"><rdf:RDF><cc:Work
         rdf:about=""><dc:format>image/svg+xml</dc:format><dc:type
           rdf:resource="http://purl.org/dc/dcmitype/StillImage" /><dc:title /></cc:Work></rdf:RDF></metadata><defs
     id="defs39" /><sodipodi:namedview
     pagecolor="#ffffff"
     bordercolor="#666666"
     borderopacity="1"
     objecttolerance="10"
     gridtolerance="10"
     guidetolerance="10"
     inkscape:pageopacity="0"
     inkscape:pageshadow="2"
     inkscape:window-width="1860"
     inkscape:window-height="1064"
     id="namedview37"
     showgrid="false"
     inkscape:zoom="5.5028218"
     inkscape:cx="-19.415779"
     inkscape:cy="10.373675"
     inkscape:window-x="60"
     inkscape:window-y="0"
     inkscape:window-maximized="1"
     inkscape:current-layer="Capa_1" /><g
     id="g3"
     transform="matrix(0.11859856,0,0,0.11859856,1.9064172,1.1163009)"
     style="fill:#008cd1;fill-opacity:1;stroke:none"><path
       d="m 363.908,212.282 0,-90.978 C 363.908,54.434 309.509,0 242.606,0 175.722,0 121.304,54.434 121.304,121.304 l 0,90.978 c -33.498,0 -60.653,27.158 -60.653,60.648 l 0,151.629 c 0,33.5 27.155,60.653 60.653,60.653 l 242.604,0 c 33.491,0 60.653,-27.153 60.653,-60.653 l 0,-151.629 c 0.001,-33.491 -27.162,-60.648 -60.653,-60.648 z m -106.138,146.975 0,50.139 c 0,8.382 -6.781,15.163 -15.163,15.163 -8.382,0 -15.164,-6.781 -15.164,-15.163 l 0,-50.139 c -8.9,-5.269 -15.161,-14.57 -15.161,-25.673 0,-16.765 13.579,-30.327 30.324,-30.327 16.745,0 30.326,13.562 30.326,30.327 10e-4,11.103 -6.267,20.405 -15.162,25.673 z m 45.485,-146.975 -121.3,0 0,-90.978 c 0,-33.465 27.2,-60.653 60.651,-60.653 33.435,0 60.648,27.188 60.648,60.653 l 0,90.978 z"
       id="path5"
       inkscape:connector-curvature="0"
       style="fill:#008cd1;fill-opacity:1;stroke:none" /></g><g
     id="g7"
     transform="translate(0,-425.21201)" /><g
     id="g9"
     transform="translate(0,-425.21201)" /><g
     id="g11"
     transform="translate(0,-425.21201)" /><g
     id="g13"
     transform="translate(0,-425.21201)" /><g
     id="g15"
     transform="translate(0,-425.21201)" /><g
     id="g17"
     transform="translate(0,-425.21201)" /><g
     id="g19"
     transform="translate(0,-425.21201)" /><g
     id="g21"
     transform="translate(0,-425.21201)" /><g
     id="g23"
     transform="translate(0,-425.21201)" /><g
     id="g25"
     transform="translate(0,-425.21201)" /><g
     id="g27"
     transform="translate(0,-425.21201)" /><g
     id="g29"
     transform="translate(0,-425.21201)" /><g
     id="g31"
     transform="translate(0,-425.21201)" /><g
     id="g33"
     transform="translate(0,-425.21201)" /><g
     id="g35"
     transform="translate(0,-425.21201)" /></svg>