<?xml version="1.0" encoding="UTF-8" standalone="no"?>
<!-- Created with Inkscape (http://www.inkscape.org/) -->

<svg
   xmlns:dc="http://purl.org/dc/elements/1.1/"
   xmlns:cc="http://creativecommons.org/ns#"
   xmlns:rdf="http://www.w3.org/1999/02/22-rdf-syntax-ns#"
   xmlns:svg="http://www.w3.org/2000/svg"
   xmlns="http://www.w3.org/2000/svg"
   xmlns:sodipodi="http://sodipodi.sourceforge.net/DTD/sodipodi-0.dtd"
   xmlns:inkscape="http://www.inkscape.org/namespaces/inkscape"
   width="423"
   height="85"
   id="svg2"
   version="1.1"
   inkscape:version="0.91 r13725"
   sodipodi:docname="ntrklogo.svg"
   inkscape:export-filename="/home/quids/Pictures/Art/NoTrack/ntrklogo2.png"
   inkscape:export-xdpi="99.529411"
   inkscape:export-ydpi="99.529411">
  <defs
     id="defs4">
    <filter
       id="filter3775"
       inkscape:label="Melted jelly, matte"
       inkscape:menu="Bevels"
       inkscape:menu-tooltip="Matte bevel with blurred edges"
       height="1.3"
       y="-0.15000001"
       width="1.3"
       x="-0.15000001"
       style="color-interpolation-filters:sRGB">
      <feComposite
         id="feComposite3777"
         in2="SourceGraphic"
         operator="arithmetic"
         result="fbSourceGraphic"
         in="SourceGraphic"
         k2="0.9"
         k1="0"
         k3="0"
         k4="0" />
      <feGaussianBlur
         id="feGaussianBlur3779"
         result="result0"
         in="fbSourceGraphic"
         stdDeviation="6" />
      <feSpecularLighting
         id="feSpecularLighting3781"
         specularExponent="15"
         specularConstant="0.89999998"
         surfaceScale="6"
         lighting-color="#ffffff"
         result="result1"
         in="result0">
        <feDistantLight
           id="feDistantLight3783"
           azimuth="235"
           elevation="65" />
      </feSpecularLighting>
      <feComposite
         id="feComposite3785"
         in2="result0"
         k3="0.1"
         k2="0.7"
         operator="arithmetic"
         result="result4"
         in="result1"
         k1="0.1"
         k4="0" />
      <feComposite
         id="feComposite3787"
         in2="result0"
         operator="atop"
         result="result2"
         in="result4" />
    </filter>
    <filter
       id="filter3775-2"
       inkscape:label="Melted jelly, matte"
       inkscape:menu="Bevels"
       inkscape:menu-tooltip="Matte bevel with blurred edges"
       height="1.3"
       y="-0.15000001"
       width="1.3"
       x="-0.15000001"
       style="color-interpolation-filters:sRGB">
      <feComposite
         k4="0"
         k3="0"
         k1="0"
         id="feComposite3777-4"
         in2="SourceGraphic"
         operator="arithmetic"
         result="fbSourceGraphic"
         in="SourceGraphic"
         k2="0.9" />
      <feGaussianBlur
         id="feGaussianBlur3779-1"
         result="result0"
         in="fbSourceGraphic"
         stdDeviation="6" />
      <feSpecularLighting
         id="feSpecularLighting3781-7"
         specularExponent="15"
         specularConstant="0.89999998"
         surfaceScale="6"
         lighting-color="#ffffff"
         result="result1"
         in="result0">
        <feDistantLight
           id="feDistantLight3783-3"
           azimuth="235"
           elevation="65" />
      </feSpecularLighting>
      <feComposite
         k4="0"
         id="feComposite3785-7"
         in2="result0"
         k3="0.1"
         k2="0.7"
         operator="arithmetic"
         result="result4"
         in="result1"
         k1="0.1" />
      <feComposite
         id="feComposite3787-6"
         in2="result0"
         operator="atop"
         result="result2"
         in="result4" />
    </filter>
    <filter
       inkscape:collect="always"
       id="filter3944"
       x="-0.043689057"
       width="1.0873781"
       y="-0.21687397"
       height="1.433748"
       style="color-interpolation-filters:sRGB">
      <feGaussianBlur
         inkscape:collect="always"
         stdDeviation="5.450998"
         id="feGaussianBlur3946" />
    </filter>
    <filter
       inkscape:collect="always"
       style="color-interpolation-filters:sRGB"
       id="filter4299"
       x="-0.054386482"
       width="1.108773"
       y="-0.1844133"
       height="1.3688266">
      <feGaussianBlur
         inkscape:collect="always"
         stdDeviation="10.864402"
         id="feGaussianBlur4301" />
    </filter>
    <filter
       inkscape:collect="always"
       style="color-interpolation-filters:sRGB"
       id="filter4307"
       x="-0.082466707"
       width="1.1649334"
       y="-0.085591391"
       height="1.1711828">
      <feGaussianBlur
         inkscape:collect="always"
         stdDeviation="10.384541"
         id="feGaussianBlur4309" />
    </filter>
  </defs>
  <sodipodi:namedview
     id="base"
     pagecolor="#ffffff"
     bordercolor="#666666"
     borderopacity="1.0"
     inkscape:pageopacity="0.0"
     inkscape:pageshadow="2"
     inkscape:zoom="5.6"
     inkscape:cx="331.05226"
     inkscape:cy="41.882859"
     inkscape:document-units="px"
     inkscape:current-layer="layer1"
     showgrid="false"
     inkscape:window-width="1856"
     inkscape:window-height="1064"
     inkscape:window-x="64"
     inkscape:window-y="0"
     inkscape:window-maximized="1" />
  <metadata
     id="metadata7">
    <rdf:RDF>
      <cc:Work
         rdf:about="">
        <dc:format>image/svg+xml</dc:format>
        <dc:type
           rdf:resource="http://purl.org/dc/dcmitype/StillImage" />
        <dc:title />
      </cc:Work>
    </rdf:RDF>
  </metadata>
  <g
     inkscape:groupmode="layer"
     id="layer3"
     inkscape:label="Blur"
     style="display:inline"
     transform="translate(0,-5)">
    <path
       style="color:#000000;font-style:normal;font-variant:normal;font-weight:500;font-stretch:normal;font-size:75px;line-height:127.99999714%;font-family:Ubuntu;-inkscape-font-specification:'Ubuntu Medium';text-indent:0;text-align:center;text-decoration:none;text-decoration-line:none;letter-spacing:5px;word-spacing:normal;text-transform:none;direction:ltr;block-progression:tb;writing-mode:lr-tb;baseline-shift:baseline;text-anchor:middle;display:inline;overflow:visible;visibility:visible;fill:#0098e2;fill-opacity:1;fill-rule:evenodd;stroke:none;stroke-width:2;marker:none;filter:url(#filter3944);enable-background:accumulate"
       d="m 300.96875,19.09375 -9.09375,1.5 a 0.52317498,0.52317498 0 0 0 -0.4375,0.53125 l 0,56.71875 a 0.52317498,0.52317498 0 0 0 0.53125,0.53125 l 9.09375,0 a 0.52317498,0.52317498 0 0 0 0.53125,-0.53125 l 0,-16.84375 c 1.05952,0.846731 2.12342,1.740583 3.21875,2.875 1.38897,1.389007 2.75271,2.879402 4.09375,4.46875 1.33701,1.584633 2.57827,3.220373 3.71875,4.90625 a 0.52317498,0.52317498 0 0 0 0,0.03125 c 1.19033,1.686353 2.23185,3.27435 3.125,4.8125 a 0.52317498,0.52317498 0 0 0 0.4375,0.28125 l 10.5,0 a 0.52317498,0.52317498 0 0 0 0.46875,-0.78125 C 326.24579,75.874079 325.10882,74.013125 323.75,72 c -1.35632,-2.009295 -2.81794,-4.022093 -4.375,-6.03125 -1.55858,-2.011015 -3.14903,-3.891914 -4.8125,-5.65625 -1.52686,-1.665615 -2.96775,-3.04921 -4.375,-4.25 2.67543,-2.730886 5.33964,-5.538137 7.96875,-8.40625 2.80241,-3.002578 5.43472,-5.884395 7.9375,-8.6875 a 0.52317498,0.52317498 0 0 0 -0.375,-0.875 l -10.71875,0 a 0.52317498,0.52317498 0 0 0 -0.40625,0.1875 c -0.79448,0.943444 -1.7883,2.075904 -2.9375,3.375 -1.10111,1.251273 -2.22131,2.571622 -3.46875,3.96875 -1.24807,1.347927 -2.54223,2.723367 -3.84375,4.125 -0.97363,1.011142 -1.8663,1.920864 -2.75,2.84375 l 0,-32.96875 a 0.52317498,0.52317498 0 0 0 -0.625,-0.53125 z M 28.25,25.34375 A 0.52317498,0.52317498 0 0 0 27.78125,25.875 l 0,51.96875 A 0.52317498,0.52317498 0 0 0 28.3125,78.375 l 9.3125,0 a 0.52317498,0.52317498 0 0 0 0.53125,-0.53125 l 0,-35.65625 c 1.813784,2.216533 3.659182,4.557735 5.625,7.25 a 0.52317498,0.52317498 0 0 0 0.03125,0 c 2.344614,3.092952 4.631083,6.284119 6.875,9.625 2.245733,3.293804 4.401824,6.60918 6.5,9.90625 2.097661,3.246444 4.023134,6.313669 5.71875,9.15625 a 0.52317498,0.52317498 0 0 0 0.4375,0.25 l 8.03125,0 a 0.52317498,0.52317498 0 0 0 0.53125,-0.53125 l 0,-51.96875 A 0.52317498,0.52317498 0 0 0 71.375,25.34375 l -9.375,0 A 0.52317498,0.52317498 0 0 0 61.46875,25.875 l 0,32.78125 C 59.973086,56.339816 58.397766,53.961675 56.5625,51.375 c -0.0047,-0.0069 0.0047,-0.02435 0,-0.03125 -2.15074,-3.150258 -4.431297,-6.27499 -6.78125,-9.375 -2.298493,-3.097896 -4.575048,-6.055637 -6.875,-8.90625 -0.0055,-0.0069 0.0055,-0.02434 0,-0.03125 -2.302445,-2.901898 -4.49206,-5.422846 -6.5,-7.53125 a 0.52317498,0.52317498 0 0 0 -0.375,-0.15625 l -7.71875,0 a 0.52317498,0.52317498 0 0 0 -0.0625,0 z m 112.53125,0 A 0.52317498,0.52317498 0 0 0 140.3125,25.875 l 0,8.15625 a 0.52317498,0.52317498 0 0 0 0.53125,0.53125 l 15.4375,0 0,43.28125 a 0.52317498,0.52317498 0 0 0 0.53125,0.53125 l 9.53125,0 a 0.52317498,0.52317498 0 0 0 0.53125,-0.53125 l 0,-43.28125 15.4375,0 a 0.52317498,0.52317498 0 0 0 0.53125,-0.53125 l 0,-8.15625 a 0.52317498,0.52317498 0 0 0 -0.53125,-0.53125 l -41.46875,0 a 0.52317498,0.52317498 0 0 0 -0.0625,0 z m -40.75,11.75 c -2.80264,4.1e-5 -5.388145,0.540312 -7.75,1.5625 -0.0091,0.0039 -0.02217,-0.0039 -0.03125,0 -2.354936,0.976835 -4.413311,2.40456 -6.15625,4.25 -1.699322,1.853832 -3.06056,4.081978 -4.03125,6.6875 -0.9237,2.565849 -1.375004,5.443851 -1.375,8.59375 -4e-6,3.149939 0.452689,6.043061 1.375,8.65625 0.97069,2.605563 2.331924,4.833704 4.03125,6.6875 1.698679,1.853118 3.699692,3.285198 6.0625,4.3125 2.371487,1.031088 5.0127,1.562499 7.875,1.5625 2.86225,-10e-7 5.50347,-0.531414 7.875,-1.5625 2.41199,-1.026391 4.45442,-2.45599 6.15625,-4.3125 1.70239,-1.857189 3.01752,-4.080998 3.9375,-6.6875 0.92226,-2.613184 1.37496,-5.506316 1.375,-8.65625 -4e-5,-3.151301 -0.46113,-6.024208 -1.4375,-8.59375 -0.92124,-2.610045 -2.26859,-4.8327 -3.96875,-6.6875 -1.69324,-1.847099 -3.75645,-3.27339 -6.15625,-4.25 -0.009,-0.0039 -0.0222,0.0039 -0.0312,0 -2.3619,-1.022186 -4.9474,-1.562459 -7.75,-1.5625 z m 129.5625,0 c -2.5314,4.1e-5 -4.92538,0.250677 -7.15625,0.65625 -2.21236,0.402284 -3.89336,0.770011 -5.09375,1.1875 a 0.52317498,0.52317498 0 0 0 -0.375,0.59375 l 1.125,7.34375 a 0.52317498,0.52317498 0 0 0 0.71875,0.40625 c 1.05021,-0.381867 2.45387,-0.734027 4.1875,-1.03125 1.71902,-0.29466 3.6155,-0.437467 5.6875,-0.4375 1.50639,3.2e-5 2.71185,0.197277 3.625,0.5625 0.9719,0.370285 1.70998,0.88752 2.25,1.5625 a 0.52317498,0.52317498 0 0 0 0.0312,0.03125 c 0.59806,0.64411 1.02265,1.386188 1.25,2.25 0.2379,0.904168 0.34372,1.866535 0.34375,2.875 l 0,0.875 c -1.01951,-0.217739 -2.01686,-0.416284 -2.9375,-0.5 -1.11359,-0.151826 -2.1839,-0.249975 -3.21875,-0.25 -2.17791,2.4e-5 -4.28482,0.264789 -6.3125,0.71875 -0.01,0.0022 -0.0214,-0.0022 -0.0312,0 -1.99466,0.412646 -3.78936,1.120004 -5.34375,2.15625 -1.56925,0.993875 -2.81047,2.319425 -3.75,3.9375 a 0.52317498,0.52317498 0 0 0 -0.0312,0 C 213.6609,61.675446 213.2188,63.68317 213.2188,66 c 0,2.405661 0.39639,4.437309 1.1875,6.125 0.83241,1.664826 1.95601,3.04266 3.375,4.09375 a 0.52317498,0.52317498 0 0 0 0,0.03125 c 1.46219,1.04443 3.21091,1.786655 5.21875,2.25 1.99867,0.461233 4.21312,0.687499 6.59375,0.6875 3.55808,-10e-7 6.73385,-0.203712 9.5625,-0.65625 0.0135,-0.0019 0.0178,0.0019 0.0312,0 2.83731,-0.398824 4.9913,-0.790553 6.40625,-1.09375 A 0.52317498,0.52317498 0 0 0 246,76.9375 l 0,-23.78125 c -3e-5,-2.328418 -0.28341,-4.458707 -0.84375,-6.40625 -0.002,-0.0098 0.003,-0.02151 0,-0.03125 -0.51768,-2.001433 -1.45227,-3.716733 -2.75,-5.125 -0.006,-0.0062 0.006,-0.02502 0,-0.03125 -1.26423,-1.41561 -2.95603,-2.541788 -5.0625,-3.3125 -2.12669,-0.77801 -4.70643,-1.156209 -7.75,-1.15625 z m 44.1875,0 c -3.06323,4.1e-5 -5.84159,0.57526 -8.3125,1.65625 -2.46081,1.076638 -4.56206,2.563882 -6.3125,4.46875 -1.69633,1.901967 -3.04773,4.140454 -3.96875,6.75 -0.922,2.561142 -1.375,5.327907 -1.375,8.28125 0,2.999521 0.43345,5.803517 1.25,8.40625 0.81911,2.559759 2.03862,4.812249 3.6875,6.71875 a 0.52317498,0.52317498 0 0 0 0.0312,0 c 1.70294,1.857767 3.8017,3.330197 6.3125,4.40625 a 0.52317498,0.52317498 0 0 0 0.0312,0.03125 c 2.57368,1.029478 5.53543,1.531249 8.9375,1.53125 2.1814,-10e-7 4.30652,-0.217562 6.34375,-0.625 2.07388,-0.404665 3.60949,-0.836013 4.6875,-1.375 a 0.52317498,0.52317498 0 0 0 0.3125,-0.5625 l -1.28125,-7.5 a 0.52317498,0.52317498 0 0 0 -0.71875,-0.375 c -1.05997,0.43362 -2.33747,0.798745 -3.8125,1.09375 -1.46386,0.292773 -2.94972,0.406257 -4.46875,0.40625 -4.05548,7e-6 -6.81018,-1.063952 -8.4375,-3.15625 -1.66318,-2.185866 -2.50001,-5.178229 -2.5,-9 -1e-5,-3.969784 0.90763,-6.951799 2.65625,-9.03125 1.74609,-2.123621 4.248,-3.187469 7.6875,-3.1875 1.46074,3.1e-5 2.80004,0.146202 4.0625,0.4375 1.32361,0.294174 2.48519,0.658874 3.5,1.09375 a 0.52317498,0.52317498 0 0 0 0.71875,-0.34375 l 1.96875,-7.4375 a 0.52317498,0.52317498 0 0 0 -0.3125,-0.59375 c -3.36292,-1.375685 -6.92332,-2.093709 -10.6875,-2.09375 z m -72.125,0.15625 c -3.22181,4e-5 -6.18905,0.331992 -8.875,0.9375 -0.01,0.0022 -0.0216,-0.0022 -0.0312,0 -2.60386,0.552178 -4.81914,1.153392 -6.59375,1.8125 a 0.52317498,0.52317498 0 0 0 -0.34375,0.5 l 0,37.34375 a 0.52317498,0.52317498 0 0 0 0.53125,0.53125 l 9.09375,0 a 0.52317498,0.52317498 0 0 0 0.53125,-0.53125 l 0,-31.03125 c 0.43172,-0.123981 0.9696,-0.272858 1.875,-0.4375 1.11965,-0.194693 2.1533,-0.249969 3.125,-0.25 1.72258,3.1e-5 3.22301,0.118806 4.46875,0.40625 a 0.52317498,0.52317498 0 0 0 0.0312,0 c 1.33662,0.247559 2.38423,0.513531 3.09375,0.75 a 0.52317498,0.52317498 0 0 0 0.65625,-0.40625 l 1.5625,-7.65625 A 0.52317498,0.52317498 0 0 0 210.4375,38.625 c -0.48629,-0.162044 -1.10328,-0.288941 -1.84375,-0.4375 -0.01,-0.0026 -0.0214,0.0026 -0.0312,0 -0.76801,-0.203051 -1.53619,-0.367761 -2.34375,-0.46875 l 0,0.03125 c -0.79601,-0.148253 -1.5999,-0.291765 -2.40625,-0.34375 -0.0117,-0.0015 -0.0196,0.0014 -0.0312,0 -0.79842,-0.09889 -1.50147,-0.156208 -2.125,-0.15625 z m -101.625,8.78125 c 2.86411,3.1e-5 4.9676,1.070437 6.53125,3.25 a 0.52317498,0.52317498 0 0 0 0.0312,0 c 1.61336,2.135396 2.43747,5.083399 2.4375,8.90625 -3e-5,3.873868 -0.82188,6.876641 -2.4375,9.0625 a 0.52317498,0.52317498 0 0 0 -0.0312,0 c -1.56234,2.177777 -3.66352,3.218757 -6.53125,3.21875 -2.86779,7e-6 -5.044962,-1.038743 -6.65625,-3.21875 l 0.03125,0 c -1.566968,-2.184228 -2.375013,-5.184773 -2.375,-9.0625 -1.3e-5,-3.82676 0.779071,-6.772589 2.34375,-8.90625 1.612633,-2.181791 3.79209,-3.249969 6.65625,-3.25 z M 231.375,60.8125 c 1.12914,1.8e-5 2.14715,0.07424 3.0625,0.21875 0.76837,0.121339 1.29238,0.253029 1.75,0.375 l 0,9.15625 c -1.38166,0.245103 -3.29702,0.375005 -5.84375,0.375 -2.23653,6e-6 -3.98022,-0.391037 -5.21875,-1.125 -1.17925,-0.742481 -1.75001,-2.017926 -1.75,-4.0625 -1e-5,-1.020722 0.22986,-1.778049 0.65625,-2.375 a 0.52317498,0.52317498 0 0 0 0,-0.03125 c 0.45386,-0.680787 0.99672,-1.170224 1.71875,-1.53125 0.80607,-0.379319 1.67694,-0.639028 2.625,-0.78125 1.02553,-0.14649 2.02395,-0.218732 3,-0.21875 z"
       id="path3938"
       inkscape:connector-curvature="0" />
    <path
       d="m 94.530186,322.89351 c -2.51,0.75 -4.906,1.515 -7.175,2.3 l -47.517,0 24.928,11.085 -44.28,25.63 45.677,-4.822 c 2.33,1.773 5.212,3.498 8.62,5.166 l -29.19,44.532 64.784994,-32.977 c 4.21,0.968 8.64,1.892 13.27,2.773 l -10.733,66.783 61.413,-59.744 c 5.432,0.527 10.985,1.008 16.67,1.435 l 11.673,77.528 50.93,-75.073 c 2.03,0.013 4.05,0.034 6.096,0.034 2.436,0 4.85,-0.022 7.265,-0.04 l 56.216,76.782 6.903,-79.364 c 5.663,-0.437 11.218,-0.92 16.625,-1.457 l 60.782,59.9 -10.762,-66.976 c 4.528,-0.872 8.86,-1.787 12.98,-2.743 l 65.102,33.14 -29.437,-44.913 c 3.135,-1.58 5.808,-3.21 7.984,-4.88 l 46.562,4.915 -44.253,-25.613 24.966,-11.1 -48.592,0 c -2.223,-0.77 -4.564,-1.52 -7.016,-2.253 5.408,3.254 8.34,6.724 8.34,10.326 0,18.587 -77.737,33.652 -173.627,33.652 -95.89,0 -173.626994,-15.065 -173.626994,-33.652 0,-3.62 2.96,-7.105 8.418,-10.373 z"
       id="path4"
       inkscape:connector-curvature="0"
       style="display:inline;fill:none;fill-opacity:1;stroke:#e2001d;stroke-width:11.93130016;stroke-linecap:butt;stroke-linejoin:round;stroke-miterlimit:4;stroke-dasharray:none;stroke-opacity:1;filter:url(#filter4299)"
       transform="matrix(0.16762632,0,0,0.16762632,326.59506,11.82847)" />
    <g
       style="display:inline;fill:none;fill-opacity:1;stroke:#0098e2;stroke-width:10.63134384;stroke-miterlimit:4;stroke-dasharray:none;stroke-opacity:1;filter:url(#filter4307)"
       transform="matrix(0.18812297,0,0,0.18812297,323.1303,5.6770399)"
       id="g4137">
      <path
         style="fill:none;fill-opacity:1;stroke:#0098e2;stroke-width:10.63134384;stroke-linecap:round;stroke-linejoin:round;stroke-miterlimit:4;stroke-dasharray:none;stroke-opacity:1"
         d="m 216.01172,36.703125 c -6.348,0.01 -13.05586,0.447313 -20.00586,1.320313 -34.6,4.347 -75.1442,19.347734 -107.408204,47.302734 l 33.470704,190.197268 0.32617,9.95117 c -0.0295,9.97367 0.50682,21.4695 0.79878,30.39649 l 58.5957,8.45703 9.11328,-21.2246 c 5.53857,0.91581 11.143,1.72673 16.77735,2.46289 l 10.61133,18.84961 c 80.16,9.438 141.51015,-1.20588 172.03515,-21.79688 0.0214,-7.915 1.27813,-15.93947 -0.32242,-22.62109 -14.8327,-48.13618 -60.93733,-86.72293 -134.98829,-54.73633 l 0.42774,-16.76953 0.0117,-0.11914 -27.06446,-14.1836 -35.34374,25 -10.79297,-15.25586 27.54687,-19.48437 -27.5,-14.41016 8.66992,-16.55273 35.96289,18.84179 34.57032,-24.45703 1.61914,-16.18554 -30.19922,-17.91797 -35.16016,22.43164 -10.04883,-15.75586 27.20704,-17.36133 -27.97071,-16.593749 9.53906,-16.072265 36.08008,21.408203 37.08789,-23.664063 c 1.453,-20.61 -21.48048,-31.510031 -53.64648,-31.457031 z"
         id="path4139"
         inkscape:connector-curvature="0"
         sodipodi:nodetypes="cccccccccccccccccccccccccccccccccc" />
      <path
         style="fill:none;fill-opacity:1;stroke:#0098e2;stroke-width:10.63134384;stroke-linejoin:round;stroke-miterlimit:4;stroke-dasharray:none;stroke-opacity:1"
         inkscape:connector-curvature="0"
         d="m 267.094,91.965 -16.522,10.54 14.602,8.665 z"
         id="path4141" />
      <path
         sodipodi:nodetypes="cccc"
         style="fill:none;fill-opacity:1;stroke:#0098e2;stroke-width:10.63134384;stroke-linecap:square;stroke-linejoin:round;stroke-miterlimit:4;stroke-dasharray:none;stroke-opacity:1"
         inkscape:connector-curvature="0"
         d="m 259.041,172.505 -13.517,9.563 11.936,6.254 c 0.5278,-5.27211 1.05151,-10.54562 1.581,-15.817 z"
         id="path4143" />
    </g>
  </g>
  <g
     inkscape:label="Text"
     inkscape:groupmode="layer"
     id="layer1"
     transform="translate(0,-967.36218)"
     style="display:inline">
    <g
       style="color:#000000;font-style:normal;font-variant:normal;font-weight:500;font-stretch:normal;font-size:75px;line-height:127.99999714%;font-family:Ubuntu;-inkscape-font-specification:'Ubuntu Medium';text-indent:0;text-align:center;text-decoration:none;text-decoration-line:none;letter-spacing:5px;word-spacing:normal;text-transform:none;direction:ltr;block-progression:tb;writing-mode:lr-tb;baseline-shift:baseline;text-anchor:middle;display:inline;overflow:visible;visibility:visible;fill:#0098e2;fill-opacity:1;fill-rule:evenodd;stroke:none;stroke-width:2;marker:none;enable-background:accumulate"
       id="text2985"
       transform="translate(-4,0)">
      <path
         d="m 67.337036,1040.1997 c -1.700039,-2.85 -3.600038,-5.9 -5.7,-9.15 -2.100033,-3.3 -4.275031,-6.6 -6.525,-9.9 -2.250027,-3.35 -4.550024,-6.575 -6.9,-9.675 -2.30002,-3.15 -4.500017,-5.975 -6.6,-8.475 l 0,37.2 -9.3,0 0,-51.97499 7.725,0 c 1.999984,2.10005 4.149982,4.60004 6.45,7.5 2.299977,2.85004 4.599975,5.82499 6.9,8.92499 2.34997,3.1 4.599968,6.225 6.75,9.375 2.199964,3.1 4.149962,6 5.85,8.7 l 0,-34.49999 9.375,0 0,51.97499 -8.025,0"
         style="letter-spacing:0px;fill:#0098e2;marker:none"
         id="path3012"
         inkscape:connector-curvature="0" />
      <path
         d="m 122.85461,1020.5497 c -4e-5,3.1 -0.45004,5.925 -1.35,8.475 -0.90003,2.55 -2.17503,4.725 -3.825,6.525 -1.65003,1.8 -3.65003,3.2 -6,4.2 -2.30002,1 -4.85002,1.5 -7.65,1.5 -2.80002,0 -5.350013,-0.5 -7.649996,-1.5 -2.300012,-1 -4.27501,-2.4 -5.925,-4.2 -1.650007,-1.8 -2.950006,-3.975 -3.9,-6.525 -0.900004,-2.55 -1.350003,-5.375 -1.35,-8.475 -3e-6,-3.1 0.449996,-5.9 1.35,-8.4 0.949994,-2.55 2.249993,-4.725 3.9,-6.525 1.69999,-1.8 3.699988,-3.175 6,-4.125 2.299983,-1 4.824976,-1.49995 7.574996,-1.49999 2.74998,4e-5 5.27498,0.49999 7.575,1.49999 2.34997,0.95 4.34997,2.325 6,4.125 1.64997,1.8 2.92497,3.975 3.825,6.525 0.94996,2.5 1.42496,5.3 1.425,8.4 m -9.3,0 c -3e-5,-3.9 -0.85003,-6.975 -2.55,-9.225 -1.65002,-2.3 -3.97502,-3.45 -6.975,-3.45 -3.00002,0 -5.350013,1.15 -7.049996,3.45 -1.650013,2.25 -2.475013,5.325 -2.475,9.225 -1.3e-5,3.95 0.824987,7.075 2.475,9.375 1.699983,2.3 4.049976,3.45 7.049996,3.45 2.99998,0 5.32498,-1.15 6.975,-3.45 1.69997,-2.3 2.54997,-5.425 2.55,-9.375"
         style="letter-spacing:0px;fill:#0098e2;marker:none"
         id="path3014"
         inkscape:connector-curvature="0" />
      <path
         d="m 186.31047,988.22471 0,8.175 -15.975,0 0,43.79999 -9.525,0 0,-43.79999 -15.975,0 0,-8.175 41.475,0"
         style="letter-spacing:0px;fill:#0098e2;marker:none"
         id="path3016"
         inkscape:connector-curvature="0" />
      <path
         d="m 212.70813,1009.1497 c -0.75003,-0.25 -1.80003,-0.5 -3.15,-0.75 -1.30002,-0.3 -2.82502,-0.45 -4.575,-0.45 -1.00002,0 -2.07502,0.1 -3.225,0.3 -1.10002,0.2 -1.87502,0.375 -2.325,0.525 l 0,31.425 -9.075,0 0,-37.35 c 1.74999,-0.65 3.92499,-1.25 6.525,-1.8 2.64998,-0.6 5.57498,-0.9 8.775,-0.9 0.59998,0 1.29998,0.05 2.1,0.15 0.79998,0.05 1.59998,0.15 2.4,0.3 0.79997,0.1 1.57497,0.25 2.325,0.45 0.74997,0.15 1.34997,0.3 1.8,0.45 l -1.575,7.65"
         style="letter-spacing:0px;fill:#0098e2;marker:none"
         id="path3018"
         inkscape:connector-curvature="0" />
      <path
         d="m 234.33391,1033.8247 c 2.79998,0 4.92498,-0.15 6.375,-0.45 l 0,-10.05 c -0.50002,-0.15 -1.22502,-0.3 -2.175,-0.45 -0.95002,-0.15 -2.00002,-0.225 -3.15,-0.225 -1.00002,0 -2.02502,0.075 -3.075,0.225 -1.00002,0.15 -1.92501,0.425 -2.775,0.825 -0.80001,0.4 -1.45001,0.975 -1.95,1.725 -0.50001,0.7 -0.75001,1.6 -0.75,2.7 -1e-5,2.15 0.67499,3.65 2.025,4.5 1.34999,0.8 3.17498,1.2 5.475,1.2 m -0.75,-33.82499 c 2.99998,4e-5 5.52498,0.37499 7.575,1.12499 2.04997,0.75 3.67497,1.8 4.875,3.15 1.24997,1.35 2.12497,3 2.625,4.95 0.54997,1.9 0.82497,4 0.825,6.3 l 0,23.775 c -1.40003,0.3 -3.52503,0.65 -6.375,1.05 -2.80002,0.45 -5.97502,0.675 -9.525,0.675 -2.35002,0 -4.50001,-0.225 -6.45,-0.675 -1.95001,-0.45 -3.62501,-1.175 -5.025,-2.175 -1.35,-1 -2.425,-2.3 -3.225,-3.9 -0.75,-1.6 -1.125,-3.575 -1.125,-5.925 0,-2.25 0.425,-4.15 1.275,-5.7 0.9,-1.55 2.09999,-2.8 3.6,-3.75 1.49999,-1 3.22499,-1.7 5.175,-2.1 1.99999,-0.45 4.07498,-0.675 6.225,-0.675 0.99998,0 2.04998,0.075 3.15,0.225 1.09998,0.1 2.27498,0.3 3.525,0.6 l 0,-1.5 c -2e-5,-1.05 -0.12502,-2.05 -0.375,-3 -0.25002,-0.95 -0.70002,-1.775 -1.35,-2.475 -0.60002,-0.75 -1.42502,-1.325 -2.475,-1.725 -1.00002,-0.4 -2.27502,-0.6 -3.825,-0.6 -2.10001,0 -4.02501,0.15 -5.775,0.45 -1.75001,0.3 -3.17501,0.65 -4.275,1.05 l -1.125,-7.35 c 1.14999,-0.4 2.82499,-0.8 5.025,-1.2 2.19999,-0.4 4.54998,-0.59995 7.05,-0.59999"
         style="letter-spacing:0px;fill:#0098e2;marker:none"
         id="path3020"
         inkscape:connector-curvature="0" />
      <path
         d="m 258.34915,1020.6247 c -1e-5,-2.9 0.44999,-5.6 1.35,-8.1 0.89999,-2.55 2.17499,-4.75 3.825,-6.6 1.69999,-1.85 3.74998,-3.3 6.15,-4.35 2.39998,-1.05 5.09998,-1.57495 8.1,-1.57499 3.69997,4e-5 7.19997,0.67499 10.5,2.02499 l -1.95,7.425 c -1.05004,-0.45 -2.25003,-0.825 -3.6,-1.125 -1.30003,-0.3 -2.70003,-0.45 -4.2,-0.45 -3.55002,0 -6.25002,1.125 -8.1,3.375 -1.85002,2.2 -2.77502,5.325 -2.775,9.375 -2e-5,3.9 0.87498,7 2.625,9.3 1.74998,2.25 4.69998,3.375 8.85,3.375 1.54997,0 3.07497,-0.15 4.575,-0.45 1.49997,-0.3 2.79996,-0.675 3.9,-1.125 l 1.275,7.5 c -1.00004,0.5 -2.52504,0.95 -4.575,1.35 -2.00003,0.4 -4.07503,0.6 -6.225,0.6 -3.35002,0 -6.27502,-0.5 -8.775,-1.5 -2.45002,-1.05 -4.50001,-2.475 -6.15,-4.275 -1.60001,-1.85 -2.80001,-4.025 -3.6,-6.525 -0.80001,-2.55 -1.20001,-5.3 -1.2,-8.25"
         style="letter-spacing:0px;fill:#0098e2;marker:none"
         id="path3022"
         inkscape:connector-curvature="0" />
      <path
         d="m 305.04836,1016.2747 c 1.14999,-1.2 2.37499,-2.475 3.675,-3.825 1.29998,-1.4 2.57498,-2.775 3.825,-4.125 1.24998,-1.4 2.42498,-2.725 3.525,-3.975 1.14998,-1.3 2.12498,-2.425 2.925,-3.375 l 10.725,0 c -2.50003,2.8 -5.15003,5.7 -7.95,8.7 -2.75002,3 -5.52502,5.925 -8.325,8.775 1.49998,1.25 3.07498,2.775 4.725,4.575 1.64997,1.75 3.24997,3.625 4.8,5.625 1.54997,2 2.99997,4 4.35,6 1.34997,2 2.47496,3.85 3.375,5.55 l -10.5,0 c -0.90002,-1.55 -1.95002,-3.175 -3.15,-4.875 -1.15002,-1.7 -2.40002,-3.35 -3.75,-4.95 -1.35002,-1.6 -2.72502,-3.1 -4.125,-4.5 -1.40001,-1.45 -2.77501,-2.675 -4.125,-3.675 l 0,18 -9.075,0 0,-56.69999 9.075,-1.5 0,34.27499"
         style="letter-spacing:0px;fill:#0098e2;marker:none"
         id="path3024"
         inkscape:connector-curvature="0" />
    </g>
    <g
       id="g4198"
       transform="matrix(0.18812297,0,0,0.18812297,323.06071,968.03922)"
       style="display:inline;fill:#0098e2;fill-opacity:1;stroke:#0098e2;stroke-width:5.84723902;stroke-miterlimit:4;stroke-dasharray:none;stroke-opacity:1">
      <path
         sodipodi:nodetypes="cccccccccccccccccccccccccccccccccc"
         inkscape:connector-curvature="0"
         id="path4200"
         d="m 216.01172,36.703125 c -6.348,0.01 -13.05586,0.447313 -20.00586,1.320313 -34.6,4.347 -75.1442,19.347734 -107.408204,47.302734 l 33.470704,190.197268 0.32617,9.95117 c -0.0295,9.97367 0.50682,21.4695 0.79878,30.39649 l 58.5957,8.45703 9.11328,-21.2246 c 5.53857,0.91581 11.143,1.72673 16.77735,2.46289 l 10.61133,18.84961 c 80.16,9.438 141.51015,-1.20588 172.03515,-21.79688 0.0214,-7.915 1.27813,-15.93947 -0.32242,-22.62109 -14.8327,-48.13618 -60.93733,-86.72293 -134.98829,-54.73633 l 0.42774,-16.76953 0.0117,-0.11914 -27.06446,-14.1836 -35.34374,25 -10.79297,-15.25586 27.54687,-19.48437 -27.5,-14.41016 8.66992,-16.55273 35.96289,18.84179 34.57032,-24.45703 1.61914,-16.18554 -30.19922,-17.91797 -35.16016,22.43164 -10.04883,-15.75586 27.20704,-17.36133 -27.97071,-16.593749 9.53906,-16.072265 36.08008,21.408203 37.08789,-23.664063 c 1.453,-20.61 -21.48048,-31.510031 -53.64648,-31.457031 z"
         style="fill:#0098e2;fill-opacity:1;stroke:#0098e2;stroke-width:5.84723902;stroke-linecap:round;stroke-linejoin:round;stroke-miterlimit:4;stroke-dasharray:none;stroke-opacity:1" />
      <path
         id="path4202"
         d="m 267.094,91.965 -16.522,10.54 14.602,8.665 z"
         inkscape:connector-curvature="0"
         style="fill:#0098e2;fill-opacity:1;stroke:#0098e2;stroke-width:5.84723902;stroke-linejoin:round;stroke-miterlimit:4;stroke-dasharray:none;stroke-opacity:1" />
      <path
         id="path4204"
         d="m 259.041,172.505 -13.517,9.563 11.936,6.254 c 0.5278,-5.27211 1.05151,-10.54562 1.581,-15.817 z"
         inkscape:connector-curvature="0"
         style="fill:#0098e2;fill-opacity:1;stroke:#0098e2;stroke-width:5.84723902;stroke-linecap:square;stroke-linejoin:round;stroke-miterlimit:4;stroke-dasharray:none;stroke-opacity:1"
         sodipodi:nodetypes="cccc" />
    </g>
    <path
       style="display:inline;fill:#d40000;fill-opacity:1;stroke:#e2001d;stroke-width:1;stroke-linecap:butt;stroke-linejoin:round;stroke-miterlimit:4;stroke-dasharray:none;stroke-opacity:1"
       inkscape:connector-curvature="0"
       id="path4414"
       d="m 342.44081,1028.3161 c -0.42076,0.1257 -0.82238,0.254 -1.20273,0.3856 l -7.9651,0 4.17859,1.8581 -7.42249,4.2962 7.65667,-0.8082 c 0.39057,0.2972 0.87366,0.5863 1.44493,0.8659 l -4.89301,7.4647 10.85967,-5.5277 c 0.70571,0.1622 1.4483,0.3171 2.22441,0.4648 l -1.79913,11.1945 10.29442,-10.0147 c 0.91055,0.088 1.84138,0.169 2.79433,0.2406 l 1.95672,12.9957 8.5372,-12.5841 c 0.34028,0 0.67888,0.012 1.02185,0.012 0.40833,0 0.81299,-0.012 1.2178,-0.012 l 9.42329,12.8706 1.15712,-13.3035 c 0.94926,-0.073 1.88043,-0.1542 2.78679,-0.2443 l 10.18866,10.0409 -1.80399,-11.227 c 0.75901,-0.1461 1.48516,-0.2995 2.17578,-0.4597 l 10.91282,5.5551 -4.93442,-7.5286 c 0.5255,-0.2649 0.97357,-0.5381 1.33833,-0.818 l 7.80501,0.8239 -7.41796,-4.2935 4.18495,-1.8606 -8.1453,0 c -0.37263,-0.129 -0.76504,-0.2548 -1.17606,-0.3777 0.90652,0.5455 1.398,1.1272 1.398,1.731 0,3.1156 -13.03076,5.641 -29.10445,5.641 -16.07369,0 -29.10446,-2.5254 -29.10446,-5.641 0,-0.6068 0.49618,-1.191 1.41108,-1.7389 z" />
  </g>
</svg>
