<?xml version="1.0" encoding="UTF-8" standalone="no"?>
<!-- Created with Inkscape (http://www.inkscape.org/) -->

<svg
   xmlns:dc="http://purl.org/dc/elements/1.1/"
   xmlns:cc="http://creativecommons.org/ns#"
   xmlns:rdf="http://www.w3.org/1999/02/22-rdf-syntax-ns#"
   xmlns:svg="http://www.w3.org/2000/svg"
   xmlns="http://www.w3.org/2000/svg"
   xmlns:sodipodi="http://sodipodi.sourceforge.net/DTD/sodipodi-0.dtd"
   xmlns:inkscape="http://www.inkscape.org/namespaces/inkscape"
   width="60"
   height="60"
   viewBox="0 0 60.000003 60"
   id="svg2"
   version="1.1"
   inkscape:version="0.91 r13725"
   sodipodi:docname="smenu_help.svg">
  <title
     id="title8006">NoTrack Help</title>
  <defs
     id="defs4" />
  <sodipodi:namedview
     id="base"
     pagecolor="#ffffff"
     bordercolor="#666666"
     borderopacity="1.0"
     inkscape:pageopacity="0.0"
     inkscape:pageshadow="2"
     inkscape:zoom="5.6"
     inkscape:cx="31.146677"
     inkscape:cy="13.849932"
     inkscape:document-units="px"
     inkscape:current-layer="layer1"
     showgrid="false"
     inkscape:window-width="1856"
     inkscape:window-height="1065"
     inkscape:window-x="1984"
     inkscape:window-y="0"
     inkscape:window-maximized="1"
     inkscape:snap-global="false"
     inkscape:object-paths="true"
     inkscape:object-nodes="false"
     units="px" />
  <metadata
     id="metadata7">
    <rdf:RDF>
      <cc:Work
         rdf:about="">
        <dc:format>image/svg+xml</dc:format>
        <dc:type
           rdf:resource="http://purl.org/dc/dcmitype/StillImage" />
        <dc:title>NoTrack Help</dc:title>
        <dc:creator>
          <cc:Agent>
            <dc:title>QuidsUp</dc:title>
          </cc:Agent>
        </dc:creator>
      </cc:Work>
    </rdf:RDF>
  </metadata>
  <g
     inkscape:label="Layer 1"
     inkscape:groupmode="layer"
     id="layer1"
     transform="translate(0,-992.3622)">
    <path
       style="font-size:180px;font-style:normal;font-variant:normal;font-weight:500;font-stretch:normal;text-indent:0;text-align:center;text-decoration:none;line-height:127.99999714%;letter-spacing:5px;word-spacing:normal;text-transform:none;direction:ltr;block-progression:tb;writing-mode:lr-tb;text-anchor:middle;baseline-shift:baseline;color:#000000;fill:#f7f7f7;fill-opacity:1;fill-rule:evenodd;stroke:none;stroke-width:3;marker:none;visibility:visible;display:inline;overflow:visible;enable-background:accumulate;font-family:Ubuntu;-inkscape-font-specification:Ubuntu Medium"
       d="m 30.1875,995.89732 c -2.405741,5e-5 -4.78046,0.31103 -7.09375,0.9375 -2.25726,0.57637 -4.263421,1.35395 -6.0625,2.375 a 0.84603079,0.84603079 0 0 0 -0.375,1.03128 l 2.375,6.5313 a 0.84603079,0.84603079 0 0 0 1.1875,0.4687 c 1.582251,-0.8589 3.123497,-1.4918 4.53125,-1.8437 1.414525,-0.3978 2.906155,-0.5937 4.46875,-0.5938 1.964491,1e-4 3.272197,0.4598 4.09375,1.2812 a 0.84603079,0.84603079 0 0 0 0.03125,0.031 c 0.906961,0.8281 1.312483,1.8068 1.3125,3.1563 -1.7e-5,1.0008 -0.217957,1.8906 -0.65625,2.6874 -0.475836,0.8652 -1.083898,1.7133 -1.84375,2.5626 -0.775202,0.8664 -1.642842,1.7201 -2.5625,2.5937 a 0.84603079,0.84603079 0 0 0 0,0.031 c -0.911512,0.9115 -1.777698,1.8814 -2.59375,2.9374 -0.845118,1.0938 -1.526037,2.2946 -2.0625,3.5626 -0.561319,1.3268 -0.84376,2.8306 -0.84375,4.4687 -9e-6,0.4858 0.01365,1.0076 0.0625,1.5937 0.05004,0.5506 0.12108,1.0742 0.21875,1.5626 a 0.84603079,0.84603079 0 0 0 0.84375,0.6874 l 7.28125,0 a 0.84603079,0.84603079 0 0 0 0.84375,-0.9687 c -0.03654,-0.2192 -0.06251,-0.4707 -0.0625,-0.7187 -1.6e-5,-0.3267 -1.6e-5,-0.6104 0,-0.8438 -1.5e-5,-1.2744 0.261002,-2.3865 0.75,-3.375 0.0043,-0.01 -0.0044,-0.023 0,-0.031 0.572557,-1.053 1.255878,-2.0115 2.09375,-2.9376 0.862482,-0.9987 1.80878,-1.9624 2.8125,-2.875 a 0.84603079,0.84603079 0 0 0 0.03125,0 c 1.052121,-1.0042 2.030475,-2.0894 2.9375,-3.1874 0.927909,-1.1233 1.663637,-2.346 2.25,-3.6563 0.0059,-0.013 0.02541,-0.018 0.03125,-0.031 0.65682,-1.3792 0.96872,-2.946 0.96875,-4.625 -3e-5,-1.395 -0.214858,-2.841 -0.65625,-4.3124 -0.456375,-1.5212 -1.253275,-2.903 -2.40625,-4.1563 -1.168046,-1.26957 -2.727436,-2.3116 -4.625,-3.09378 -0.0086,-0.004 -0.02264,0.004 -0.03125,0 -1.962477,-0.84965 -4.383207,-1.24995 -7.25,-1.25 z m -1.125,39.40628 c -1.742011,0 -3.33493,0.6373 -4.59375,1.8438 -1.240361,1.1863 -1.843758,2.8119 -1.84375,4.625 -8e-6,1.8129 0.609628,3.4132 1.84375,4.5937 a 0.84603079,0.84603079 0 0 0 0.03125,0 c 1.259678,1.1548 2.826275,1.7813 4.5625,1.7813 1.777098,0 3.372495,-0.6131 4.59375,-1.7813 1.234093,-1.1805 1.84373,-2.7808 1.84375,-4.5937 -2e-5,-1.8037 -0.616376,-3.4092 -1.84375,-4.5938 -0.0063,-0.01 -0.02496,0.01 -0.03125,0 -1.217376,-1.2078 -2.788954,-1.875 -4.5625,-1.875 z"
       id="path3756"
       inkscape:connector-curvature="0" />
  </g>
</svg>
