<?xml version="1.0" encoding="UTF-8" standalone="no"?>
<!-- Created with Inkscape (http://www.inkscape.org/) -->

<svg
   xmlns:dc="http://purl.org/dc/elements/1.1/"
   xmlns:cc="http://creativecommons.org/ns#"
   xmlns:rdf="http://www.w3.org/1999/02/22-rdf-syntax-ns#"
   xmlns:svg="http://www.w3.org/2000/svg"
   xmlns="http://www.w3.org/2000/svg"
   xmlns:sodipodi="http://sodipodi.sourceforge.net/DTD/sodipodi-0.dtd"
   xmlns:inkscape="http://www.inkscape.org/namespaces/inkscape"
   width="64px"
   height="64px"
   id="svg2985"
   version="1.1"
   inkscape:version="0.91 r13725"
   sodipodi:docname="status_screen.svg"
   inkscape:export-filename="/home/quids/Pictures/menu_home.png"
   inkscape:export-xdpi="126.56"
   inkscape:export-ydpi="126.56">
  <title
     id="title8000">NoTrack Status</title>
  <defs
     id="defs2987" />
  <sodipodi:namedview
     id="base"
     pagecolor="#ffffff"
     bordercolor="#666666"
     borderopacity="1.0"
     inkscape:pageopacity="0.0"
     inkscape:pageshadow="2"
     inkscape:zoom="7.7781746"
     inkscape:cx="48.11744"
     inkscape:cy="26.36576"
     inkscape:current-layer="layer1"
     showgrid="true"
     inkscape:document-units="px"
     inkscape:grid-bbox="true"
     inkscape:window-width="1856"
     inkscape:window-height="1065"
     inkscape:window-x="1984"
     inkscape:window-y="0"
     inkscape:window-maximized="1" />
  <metadata
     id="metadata2990">
    <rdf:RDF>
      <cc:Work
         rdf:about="">
        <dc:format>image/svg+xml</dc:format>
        <dc:type
           rdf:resource="http://purl.org/dc/dcmitype/StillImage" />
        <dc:title>NoTrack Status</dc:title>
        <dc:creator>
          <cc:Agent>
            <dc:title>QuidsUp</dc:title>
          </cc:Agent>
        </dc:creator>
      </cc:Work>
    </rdf:RDF>
  </metadata>
  <g
     id="layer1"
     inkscape:label="Layer 1"
     inkscape:groupmode="layer">
    <path
       style="opacity:1;fill:#f7f7f7;fill-opacity:1;stroke:none;stroke-width:2.5;stroke-linecap:round;stroke-linejoin:round;stroke-miterlimit:4;stroke-dasharray:none;stroke-opacity:1"
       d="m 2.103797,17.928613 c 0.2197302,1.353468 0,16.758622 0,16.758622 l 10.947958,0 4.0176,-11.91509 c 1.099588,-1.094322 1.944867,-0.766072 2.711879,0 l 7.131239,22.086506 6.126839,-18.21168 c 1.053652,-1.118882 1.925236,-0.876898 2.711879,0 l 2.912761,8.234005 12.554997,0.290612 c 1.594142,1.03908 0.861948,1.828863 0.100441,2.615506 l -13.559399,0 c -0.597561,-0.04535 -1.109814,-0.310109 -1.5066,-0.871835 l -1.807919,-5.037273 -6.227278,18.114809 c -0.619513,0.282222 -1.086283,0.932729 -2.20968,0 l -7.533,-22.086506 -2.81232,8.040264 c -0.389284,1.086632 -1.08408,1.657621 -2.008799,1.840541 l -11.6510379,0 0,17.146104 c -0.1045981,2.354889 0.9516837,2.283943 2.0087999,2.324896 l 54.940671,0 c 1.857937,0.04887 2.896087,-0.662508 3.013199,-2.228025 l 0,-37.585809 c -0.09666,-1.074223 -0.433138,-2.009666 -2.510999,-1.937412 l -54.6895706,0 C 3.5380681,15.501648 1.9360135,15.054986 2.103797,17.928613 Z"
       id="path4153"
       inkscape:connector-curvature="0"
       sodipodi:nodetypes="cccccccccccccccccccccccccccc" />
  </g>
</svg>
